<?xml version="1.0" encoding="utf-8"?>
<!-- Generator: Adobe Illustrator 25.3.1, SVG Export Plug-In . SVG Version: 6.00 Build 0)  -->
<svg version="1.1" id="Layer_1" xmlns="http://www.w3.org/2000/svg" xmlns:xlink="http://www.w3.org/1999/xlink" x="0px" y="0px"
	 viewBox="0 0 5000 5000" style="enable-background:new 0 0 5000 5000;" xml:space="preserve">
<style type="text/css">
	.st0{fill:none;stroke:#6F3FF5;stroke-width:2;stroke-miterlimit:10;}
	.st1{fill:#5BF1CD;}
	.st2{fill:#02E2AC;}
	.st3{fill:none;stroke:#F0587D;stroke-width:6;stroke-linecap:round;stroke-linejoin:round;stroke-miterlimit:10;}
	.st4{fill:none;stroke:#11BC92;stroke-width:6;stroke-linecap:round;stroke-linejoin:round;stroke-miterlimit:10;}
	.st5{fill:#D44D6E;}
	.st6{fill:#F579A6;}
	.st7{fill:#F3587D;}
	.st8{fill:none;stroke:#F279A5;stroke-width:6;stroke-linecap:round;stroke-linejoin:round;stroke-miterlimit:10;}
	.st9{fill:#6F3FF5;}
	.st10{fill:#8C65F7;}
	.st11{fill:none;stroke:#7767AE;stroke-width:6;stroke-linecap:round;stroke-linejoin:round;stroke-miterlimit:10;}
	.st12{fill:none;}
	.st13{fill:none;stroke:#11BC92;stroke-linecap:round;stroke-linejoin:round;stroke-miterlimit:10;}
	.st14{fill:none;stroke:#D44E6F;stroke-width:5;stroke-linecap:round;stroke-linejoin:round;stroke-miterlimit:10;}
	.st15{fill:none;stroke:#7767AE;stroke-linecap:round;stroke-linejoin:round;stroke-miterlimit:10;}
	.st16{fill:#FFDB4C;}
	.st17{fill:#E1B815;}
	.st18{fill:none;stroke:#FFCD05;stroke-width:6;stroke-linecap:round;stroke-linejoin:round;stroke-miterlimit:10;}
	.st19{fill:none;stroke:#20B790;stroke-linecap:round;stroke-linejoin:round;stroke-miterlimit:10;}
	.st20{fill:#5932C4;}
</style>
<g>
	<line class="st0" x1="2496.5" y1="-10.5" x2="5000" y2="3063.4"/>
	<line class="st0" x1="2500" y1="8.8" x2="5000" y2="4094.8"/>
	<line class="st0" x1="2496.5" y1="-10.5" x2="5000" y2="5000"/>
	<line class="st0" x1="2496.5" y1="-10.5" x2="4532.3" y2="5000"/>
	<line class="st0" x1="2500" y1="8.8" x2="5000" y2="2172.3"/>
	<line class="st0" x1="2495" y1="-1.2" x2="4076.2" y2="5000"/>
	<line class="st0" x1="2500" y1="8.8" x2="5000" y2="993.5"/>
	<line class="st0" x1="2500" y1="2.2" x2="3093.1" y2="5027.6"/>
	<line class="st0" x1="2500" y1="8.8" x2="2500" y2="5000"/>
	<line class="st0" x1="2496.5" y1="-10.5" x2="3634.2" y2="5000"/>
	<line class="st0" x1="2503.5" y1="-4.1" x2="0" y2="3069.7"/>
	<line class="st0" x1="2500" y1="15.2" x2="0" y2="4101.2"/>
	<line class="st0" x1="2503.5" y1="-4.1" x2="0" y2="5006.4"/>
	<line class="st0" x1="2503.5" y1="-4.1" x2="467.7" y2="5006.4"/>
	<line class="st0" x1="2500" y1="15.2" x2="0" y2="2178.6"/>
	<line class="st0" x1="2505" y1="5.2" x2="923.8" y2="5006.4"/>
	<line class="st0" x1="2500" y1="15.2" x2="0" y2="999.8"/>
	<line class="st0" x1="2500" y1="8.6" x2="1906.9" y2="5034"/>
	<line class="st0" x1="2503.5" y1="-4.1" x2="1365.8" y2="5006.4"/>
	<line class="st0" x1="899.8" y1="263.1" x2="4132.3" y2="263.1"/>
	<line class="st0" x1="53.1" y1="385.5" x2="4919.9" y2="385.5"/>
	<line class="st0" x1="0" y1="555" x2="5000" y2="555"/>
	<line class="st0" x1="0" y1="845.6" x2="5000" y2="845.6"/>
	<line class="st0" x1="0" y1="1240.7" x2="5000" y2="1240.7"/>
	<line class="st0" x1="0" y1="1986.7" x2="5000" y2="1986.7"/>
	<line class="st0" x1="0" y1="3069.7" x2="5000" y2="3069.7"/>
	<line class="st0" x1="2500" y1="8.8" x2="4996.5" y2="398.4"/>
	<line class="st0" x1="2500" y1="8.8" x2="3.5" y2="398.4"/>
</g>
<g>
	<circle class="st1" cx="1943.1" cy="2188.9" r="26.4"/>
	<g>
		<g>
			<g>
				
					<image style="overflow:visible;enable-background:new    ;" width="2184" height="1653" xlink:href="1C8FAE9A.png"  transform="matrix(1 0 0 1 0 719)">
				</image>
			</g>
		</g>
		
			<ellipse transform="matrix(0.2604 -0.9655 0.9655 0.2604 -1026.3424 1715.8783)" class="st1" cx="606.8" cy="1527.9" rx="92.8" ry="299.9"/>
		<path class="st2" d="M5000,1052.8V887.1c-0.4-89.1-0.8-178.1-1.2-267.2c-10.3,6.3-27.5,16.5-49.3,28.1
			c-30.9,16.4-230.4,107.9-431.5,111.6c-38.3,0.7-76.6-0.9-114.7-5c-35.9-3.9-73.5-11-109.3-2.2c-38.8,9.5-59,40-82.7,69.5
			c-24.1,30-49.6,44.1-78.2,65.2c-22.8,16.8-52,38.3-86.9,55c-53.9,25.6-99.8,29.3-125.5,32.5c-80.7,10.2-112.1,41.5-242.9,85.1
			c-161.4,53.8-324.3,102.8-488.6,146.8c-94.8,25.4-144.2,29.9-233.7,61.2c-91.8,32.1-164.1,67.4-211.7,92.8
			c-0.4,179.9-0.8,359.8-1.2,539.7c0.8-0.1,1.7-0.2,2.5-0.4c-0.8,1.5-1.7,3-2.5,4.5h61.5c12.2,65.9,24.5,131.8,36.7,197.7
			c0.4,32,0.9,64.1,1.3,96.1c248.1-19,370.1-90.3,435.6-156.4c18.5-18.7,96.1-101.2,204.4-145.6c52.6-21.6,100-28.9,109-30.4
			c39-6.6,78.3-6.3,117.6-2.9c76.1,6.7,150.8,21.9,227.5,14.8c59.2-5.5,58.1-14,202.4-53.5c208.4-57,276.1-50,338.7-119.3
			c36.3-40.2,14.1-43.2,54.3-97.1c81.9-109.8,186.3-114,417.7-246.4c23.6-13.5,42.1-24.7,52-30.7
			C5000.9,1238,5000.4,1145.4,5000,1052.8z M2840.8,1646.6c-14.6,0-26.4-11.8-26.4-26.4s11.8-26.4,26.4-26.4
			c14.6,0,26.4,11.8,26.4,26.4S2855.4,1646.6,2840.8,1646.6z M2887.1,1460.3c-23.5,8.8-44.7,10-47.5,2.8
			c-2.7-7.3,14.1-20.3,37.6-29.1s44.7-10,47.5-2.8C2927.4,1438.4,2910.6,1451.5,2887.1,1460.3z M3125.8,2024.1
			c-81.2,30.4-154.6,34.7-164.1,9.6s48.8-70.1,130-100.6c81.2-30.4,154.6-34.7,164.1-9.6S3207,1993.6,3125.8,2024.1z M3432.2,1546.5
			c-119.5,44.8-227.6,51.1-241.5,14.2c-13.9-37,71.8-103.2,191.3-148s227.6-51.1,241.5-14.2
			C3637.4,1435.5,3551.7,1501.8,3432.2,1546.5z M3622.1,1708.1c-14.6,0-26.4-11.8-26.4-26.4s11.8-26.4,26.4-26.4
			s26.4,11.8,26.4,26.4C3648.5,1696.3,3636.7,1708.1,3622.1,1708.1z M3693,1210.4c-23.5,8.8-44.7,10-47.5,2.8
			c-2.7-7.3,14.1-20.3,37.6-29.1c23.5-8.8,44.7-10,47.5-2.8C3733.3,1188.5,3716.5,1201.6,3693,1210.4z M3866.5,1672.7
			c-11.7,4.4-22.4,5-23.7,1.4s7.1-10.1,18.8-14.5s22.4-5,23.7-1.4C3886.6,1661.8,3878.2,1668.3,3866.5,1672.7z M4383.4,1426.5
			c-11.7,4.4-22.4,5-23.7,1.4s7.1-10.1,18.8-14.5c11.7-4.4,22.4-5,23.7-1.4C4403.6,1415.6,4395.2,1422.1,4383.4,1426.5z
			 M4302.8,1211.2c-150.1,56.3-285.9,64.2-303.3,17.8c-17.4-46.4,90.2-129.7,240.3-185.9s285.9-64.2,303.3-17.8
			C4560.5,1071.7,4452.9,1155,4302.8,1211.2z M4753,1310.5c-23.5,8.8-44.7,10-47.5,2.8s14.1-20.3,37.6-29.1
			c23.5-8.8,44.7-10,47.5-2.8S4776.5,1301.7,4753,1310.5z M4824.4,867.7c-23.5,8.8-44.7,10-47.5,2.8c-2.7-7.3,14.1-20.3,37.6-29.1
			s44.7-10,47.5-2.8C4864.7,845.8,4847.9,858.9,4824.4,867.7z"/>
		<path class="st1" d="M359.4,1066c13.3-49.5-105.5-124.6-265.4-167.7c-31-8.3-61.2-14.9-89.9-19.6v186.6
			c13.5,4.3,27.3,8.4,41.5,12.2C205.6,1120.6,346,1115.5,359.4,1066z"/>
		
			<ellipse transform="matrix(0.2604 -0.9655 0.9655 0.2604 -324.5562 2279.8105)" class="st1" cx="1325.8" cy="1351.7" rx="24.9" ry="80.4"/>
		
			<ellipse transform="matrix(0.2604 -0.9655 0.9655 0.2604 -259.7541 3073.0024)" class="st1" cx="1875.9" cy="1706" rx="92.8" ry="299.9"/>
		<path class="st1" d="M2877.2,1433.9c-23.5,8.8-40.3,21.8-37.6,29.1c2.7,7.3,24,6,47.5-2.8s40.3-21.8,37.6-29.1
			C2922,1423.9,2900.7,1425.1,2877.2,1433.9z"/>
		<path class="st1" d="M4814.5,841.4c-23.5,8.8-40.3,21.8-37.6,29.1c2.7,7.3,24,6,47.5-2.8s40.3-21.8,37.6-29.1
			C4859.3,831.3,4838,832.6,4814.5,841.4z"/>
		
			<ellipse transform="matrix(0.9364 -0.351 0.351 0.9364 -496.6248 1217.075)" class="st1" cx="3108.9" cy="1978.4" rx="157" ry="48.6"/>
		<path class="st1" d="M3683.1,1184.1c-23.5,8.8-40.3,21.8-37.6,29.1c2.7,7.3,24,6,47.5-2.8s40.3-21.8,37.6-29.1
			C3727.8,1174,3706.6,1175.3,3683.1,1184.1z"/>
		
			<ellipse transform="matrix(0.9364 -0.351 0.351 0.9364 -123.7948 1570.8765)" class="st1" cx="4271.3" cy="1126.9" rx="290.2" ry="89.8"/>
		<path class="st1" d="M4743.1,1284.2c-23.5,8.8-40.3,21.8-37.6,29.1s24,6,47.5-2.8s40.3-21.8,37.6-29.1
			S4766.6,1275.4,4743.1,1284.2z"/>
		
			<ellipse transform="matrix(0.9364 -0.351 0.351 0.9364 -302.4918 1290.0538)" class="st1" cx="3407.3" cy="1479.4" rx="231.1" ry="71.5"/>
		
			<ellipse transform="matrix(0.9364 -0.351 0.351 0.9364 -338.9197 1462.2686)" class="st1" cx="3864.1" cy="1666" rx="22.7" ry="7"/>
		<path class="st1" d="M4378.5,1413.3c-11.7,4.4-20.2,10.9-18.8,14.5s12,3,23.7-1.4s20.2-10.9,18.8-14.5
			C4400.9,1408.3,4390.2,1408.9,4378.5,1413.3z"/>
		<path class="st1" d="M714.6,1217.4c11.7-4.4,20.2-10.9,18.8-14.5s-12-3-23.7,1.4s-20.2,10.9-18.8,14.5S702.9,1221.8,714.6,1217.4z
			"/>
		
			<ellipse transform="matrix(0.9364 -0.351 0.351 0.9364 -383.4917 766.5726)" class="st1" cx="1922.8" cy="1441.1" rx="22.7" ry="7"/>
		<path class="st1" d="M1303.5,1478.1c-11.7,4.4-20.2,10.9-18.8,14.5c1.4,3.6,12,3,23.7-1.4s20.2-10.9,18.8-14.5
			S1315.2,1473.7,1303.5,1478.1z"/>
		<path class="st1" d="M1838.5,2027.5c-11.7,4.4-20.2,10.9-18.8,14.5s12,3,23.7-1.4s20.2-10.9,18.8-14.5
			S1850.2,2023.1,1838.5,2027.5z"/>
		
			<ellipse transform="matrix(9.854019e-02 -0.9951 0.9951 9.854019e-02 -767.2506 1437.2386)" class="st1" cx="409.7" cy="1142.1" rx="26.4" ry="26.4"/>
		<ellipse class="st1" cx="1375" cy="1749.8" rx="26.4" ry="26.4"/>
		<ellipse class="st1" cx="1030.3" cy="1115.7" rx="26.4" ry="26.4"/>
		
			<ellipse transform="matrix(0.9871 -0.1602 0.1602 0.9871 -209.8211 353.7518)" class="st1" cx="2089.1" cy="1478.2" rx="26.4" ry="26.4"/>
		<ellipse class="st1" cx="726.7" cy="1743.2" rx="26.4" ry="26.4"/>
		<circle class="st1" cx="3622.1" cy="1681.7" r="26.4"/>
		
			<ellipse transform="matrix(0.3827 -0.9239 0.9239 0.3827 256.8662 3624.771)" class="st1" cx="2840.9" cy="1620.2" rx="26.4" ry="26.4"/>
	</g>
	<polygon class="st2" points="2979.1,4010.6 3052.4,4010.6 3091.9,4337.9 2979.1,4337.9 	"/>
	<line class="st3" x1="531" y1="5000" x2="682.5" y2="4880.2"/>
	<rect x="2073.4" y="2092.6" class="st1" width="767.4" height="926.1"/>
	<polygon class="st2" points="2073.4,2102 2121.4,1904.3 2184,1904.3 2184,2102 	"/>
	<polygon class="st2" points="2742.6,1904.3 2804.1,1904.3 2840.8,2102 2742.6,2102 	"/>
	<line class="st4" x1="2073.4" y1="2166.9" x2="2840.8" y2="2166.9"/>
	<line class="st4" x1="2073.4" y1="2958.6" x2="2840.8" y2="2958.6"/>
	<g>
		<path class="st5" d="M0,3461.4c12.8,0,531,90,531,90V5000H0V3461.4z"/>
		<polygon class="st6" points="531,3551.3 682.5,3340.9 0,3174.6 0,3461.4 		"/>
		<polygon class="st7" points="682.5,3340.9 682.5,5000 531,5000 531,3551.3 		"/>
		<line class="st8" x1="0" y1="3596.5" x2="531" y2="3676.8"/>
		<line class="st8" x1="0" y1="3731.2" x2="531" y2="3811.5"/>
		<line class="st8" x1="0" y1="3877.2" x2="531" y2="3943.5"/>
		<line class="st8" x1="0" y1="4048.5" x2="531" y2="4114.8"/>
		<line class="st3" x1="0" y1="4203.2" x2="531" y2="4269.5"/>
		<line class="st3" x1="0" y1="4371.8" x2="531" y2="4435.3"/>
		<line class="st3" x1="0" y1="4515.5" x2="531" y2="4584.6"/>
		<line class="st3" x1="0" y1="4684" x2="531" y2="4736.5"/>
		<line class="st3" x1="0" y1="4830.5" x2="531" y2="4883"/>
		<line class="st3" x1="531" y1="3676.8" x2="682.5" y2="3498.6"/>
		<line class="st3" x1="531" y1="3811.5" x2="682.5" y2="3636.7"/>
		<line class="st3" x1="531" y1="3943.5" x2="682.5" y2="3771.4"/>
		<line class="st3" x1="531" y1="4114.8" x2="682.5" y2="3951.8"/>
		<line class="st3" x1="531" y1="4269.5" x2="682.5" y2="4106.5"/>
		<line class="st3" x1="531" y1="4435.3" x2="682.5" y2="4275.1"/>
		<line class="st3" x1="531" y1="4584.6" x2="682.5" y2="4424.3"/>
		<line class="st3" x1="531" y1="4736.5" x2="682.5" y2="4573.5"/>
		<line class="st3" x1="531" y1="4883" x2="682.5" y2="4736.5"/>
		<polygon class="st9" points="225.4,3229.5 495.4,2849 0,2717.4 0,3174.6 		"/>
		<polygon class="st10" points="495.4,3295.3 495.4,2849 225.4,3229.5 		"/>
		<line class="st11" x1="324" y1="3253.6" x2="495.4" y2="3028.8"/>
		<line class="st11" x1="424.3" y1="3278" x2="495.4" y2="3174.6"/>
		<polygon class="st5" points="360.4,2813.1 0,2717.4 4.1,1447.1 360.4,1564.3 		"/>
		<path class="st5" d="M574.9,1328.5l-214.5,235.8v1248.9c66.8-81.7,133.6-163.3,200.3-245C565.5,2154.9,570.2,1741.7,574.9,1328.5z
			"/>
		<path class="st6" d="M4.1,1112.7c190.3,71.9,380.5,143.8,570.8,215.8l-214.5,235.8L4.1,1447.1C4.1,1335.7,4.1,1224.2,4.1,1112.7z"
			/>
		<line class="st12" x1="0" y1="1564.3" x2="360.4" y2="1690.6"/>
		<line class="st12" x1="4.1" y1="1706" x2="360.4" y2="1839.5"/>
		<line class="st12" x1="0" y1="1824.2" x2="360.4" y2="1968.7"/>
		<line class="st12" x1="0" y1="1977.5" x2="360.4" y2="2130.1"/>
		<line class="st12" x1="0" y1="2117.6" x2="360.4" y2="2270.9"/>
		<line class="st12" x1="0" y1="2275.3" x2="360.4" y2="2435.1"/>
		<line class="st12" x1="4.1" y1="2422" x2="360.4" y2="2577.5"/>
		<line class="st12" x1="4.1" y1="2549" x2="360.4" y2="2693.5"/>
		<line class="st12" x1="360.4" y1="1690.6" x2="573.2" y2="1478.2"/>
		<line class="st12" x1="360.4" y1="1839.5" x2="571.3" y2="1646.9"/>
		<line class="st12" x1="360.4" y1="1968.7" x2="566.1" y2="1784.9"/>
		<line class="st12" x1="360.4" y1="2130.1" x2="568" y2="1938"/>
		<line class="st12" x1="360.4" y1="2270.9" x2="566" y2="2106.8"/>
		<line class="st12" x1="360.4" y1="2435.1" x2="564.3" y2="2262.2"/>
		<line class="st12" x1="360.4" y1="2577.5" x2="562.7" y2="2400.2"/>
		<line class="st12" x1="360.4" y1="2693.5" x2="561.7" y2="2488.8"/>
	</g>
	<rect x="2330.7" y="854.5" class="st1" width="265.2" height="442.1"/>
	<polygon class="st2" points="2595.9,854.5 2330.7,854.5 2386.7,775.5 2565,775.5 	"/>
	<g>
		<line class="st4" x1="2330.7" y1="914.9" x2="2595.9" y2="914.9"/>
		<line class="st4" x1="2330.7" y1="970.8" x2="2595.9" y2="970.8"/>
		<line class="st4" x1="2330.7" y1="1041.8" x2="2595.9" y2="1041.8"/>
		<line class="st4" x1="2330.7" y1="1115.7" x2="2595.9" y2="1115.7"/>
		<line class="st4" x1="2330.7" y1="1180.5" x2="2595.9" y2="1180.5"/>
		<line class="st4" x1="2330.7" y1="1245.3" x2="2595.9" y2="1245.3"/>
		<line class="st4" x1="2403" y1="854.5" x2="2403" y2="1300.4"/>
		<line class="st4" x1="2510.7" y1="854.5" x2="2510.7" y2="1300.4"/>
	</g>
	<rect x="2184" y="1294.5" class="st1" width="558.6" height="805.4"/>
	<polygon class="st2" points="2184,1296.6 2245.5,1138.5 2330.7,1138.5 2330.7,1296.6 	"/>
	<polygon class="st2" points="2595.9,1138.5 2708.2,1138.5 2742.6,1296.6 2595.9,1296.6 	"/>
	<g>
		<line class="st4" x1="2184" y1="1358.3" x2="2742.6" y2="1358.3"/>
		<line class="st4" x1="2184" y1="1428.3" x2="2742.6" y2="1428.3"/>
		<line class="st4" x1="2184" y1="1495.7" x2="2742.6" y2="1495.7"/>
		<line class="st4" x1="2184" y1="1564.3" x2="2742.6" y2="1564.3"/>
		<line class="st4" x1="2184" y1="1620.2" x2="2742.6" y2="1620.2"/>
		<line class="st4" x1="2184" y1="1688.8" x2="2742.6" y2="1688.8"/>
		<line class="st4" x1="2184" y1="1749.8" x2="2742.6" y2="1749.8"/>
		<line class="st4" x1="2184" y1="1828.6" x2="2742.6" y2="1828.6"/>
		<line class="st4" x1="2184" y1="1900.2" x2="2742.6" y2="1900.2"/>
		<line class="st4" x1="2184" y1="1978.6" x2="2742.6" y2="1978.6"/>
		<line class="st4" x1="2184" y1="2049.7" x2="2742.6" y2="2049.7"/>
		<line class="st4" x1="2266.8" y1="1296.6" x2="2266.8" y2="2097.9"/>
		<line class="st4" x1="2359.1" y1="1296.6" x2="2359.1" y2="2097.9"/>
		<line class="st4" x1="2457.1" y1="1296.6" x2="2457.1" y2="2097.9"/>
		<line class="st4" x1="2550.3" y1="1296.6" x2="2550.3" y2="2097.9"/>
		<line class="st4" x1="2653.5" y1="1296.6" x2="2653.5" y2="2097.9"/>
	</g>
	<polygon class="st2" points="1935.2,3015.8 1997.2,2741 2073.4,2741 2073.4,3015.8 	"/>
	<polygon class="st2" points="2840.8,2741 2917,2741 2979.1,3015.8 2840.8,3015.8 	"/>
	<rect x="1816.7" y="4334.3" class="st1" width="1275.3" height="665.7"/>
	<polygon class="st2" points="1816.7,4337.9 1867.5,4010.6 1935.2,4010.6 1935.2,4337.9 	"/>
	<rect x="1031" y="3771.4" class="st10" width="717.4" height="1228.6"/>
	<polygon class="st9" points="1227,3229.5 1031,3771.4 1748.4,3771.4 1875.9,3260.1 	"/>
	<path class="st9" d="M1875.9,3260.1L1875.9,3260.1l-127.5,511.2V5000h68.3v-662.1c16.9-109.1,33.9-218.2,50.8-327.3
		C1870.3,3760.4,1873.1,3510.3,1875.9,3260.1z"/>
	<line class="st12" x1="1031" y1="3857.4" x2="1748.4" y2="3857.4"/>
	<line class="st12" x1="1031" y1="3955.5" x2="1748.4" y2="3957.3"/>
	<line class="st12" x1="1031" y1="4033.3" x2="1748.4" y2="4033.3"/>
	<line class="st12" x1="1031" y1="4112.2" x2="1748.4" y2="4119.5"/>
	<line class="st12" x1="1031" y1="4188" x2="1748.4" y2="4188"/>
	<line class="st12" x1="1031" y1="4285.3" x2="1748.4" y2="4281.7"/>
	<line class="st12" x1="1031" y1="4378.3" x2="1748.4" y2="4376.4"/>
	<line class="st12" x1="1031" y1="4476.7" x2="1748.4" y2="4473"/>
	<line class="st12" x1="1031" y1="4580.5" x2="1748.4" y2="4575.1"/>
	<line class="st12" x1="1031" y1="4655" x2="1748.4" y2="4655"/>
	<line class="st12" x1="1031" y1="4757.3" x2="1748.4" y2="4755.5"/>
	<line class="st12" x1="1031" y1="4856.8" x2="1748.4" y2="4856.8"/>
	<line class="st12" x1="1031" y1="4932.2" x2="1748.4" y2="4926.8"/>
	<line class="st12" x1="1748.4" y1="3857.4" x2="1875.9" y2="3397.9"/>
	<line class="st12" x1="1748.4" y1="3957.3" x2="1873" y2="3516.3"/>
	<line class="st12" x1="1748.4" y1="4033.3" x2="1872" y2="3607.4"/>
	<line class="st12" x1="1748.4" y1="4119.5" x2="1871.1" y2="3691.3"/>
	<line class="st12" x1="1748.4" y1="4188" x2="1869.9" y2="3793.4"/>
	<line class="st12" x1="1748.4" y1="4281.7" x2="1868.8" y2="3893.5"/>
	<line class="st12" x1="1748.4" y1="4376.4" x2="1867.5" y2="4010.6"/>
	<line class="st12" x1="1748.4" y1="4473" x2="1839.1" y2="4193.5"/>
	<line class="st12" x1="1748.4" y1="4575.1" x2="1816.7" y2="4372.8"/>
	<line class="st12" x1="1748.4" y1="4655" x2="1816.7" y2="4473.9"/>
	<line class="st12" x1="1748.4" y1="4755.5" x2="1816.7" y2="4564.5"/>
	<line class="st12" x1="1748.4" y1="4856.8" x2="1816.7" y2="4668.9"/>
	<line class="st12" x1="1748.4" y1="4926.8" x2="1816.7" y2="4762.8"/>
	<line class="st12" x1="1748.4" y1="5000" x2="1816.7" y2="4856.8"/>
	<rect x="1935.2" y="3015.8" class="st1" width="1043.9" height="1322.1"/>
	<g>
		<line class="st4" x1="1939" y1="3089.8" x2="2975.3" y2="3089.8"/>
		<line class="st4" x1="1939" y1="3153" x2="2975.3" y2="3153"/>
		<line class="st4" x1="1939" y1="3214.9" x2="2975.3" y2="3214.9"/>
		<line class="st4" x1="1939" y1="3279.4" x2="2975.3" y2="3279.4"/>
		<line class="st4" x1="1939" y1="3345.1" x2="2975.3" y2="3345.1"/>
		<line class="st4" x1="1939" y1="3402" x2="2975.3" y2="3402"/>
		<line class="st4" x1="1939" y1="3469.4" x2="2975.3" y2="3469.4"/>
		<line class="st4" x1="1939" y1="3535.3" x2="2975.3" y2="3535.3"/>
		<line class="st4" x1="1939" y1="3599.4" x2="2975.3" y2="3599.4"/>
		<line class="st4" x1="1939" y1="3672.4" x2="2975.3" y2="3672.4"/>
		<line class="st4" x1="1939" y1="3759.7" x2="2975.3" y2="3759.7"/>
		<line class="st4" x1="1939" y1="3834.5" x2="2975.3" y2="3834.5"/>
		<line class="st4" x1="1939" y1="3928.9" x2="2975.3" y2="3928.9"/>
		<line class="st4" x1="1939" y1="4012.4" x2="2975.3" y2="4012.4"/>
		<line class="st4" x1="1939" y1="4089" x2="2975.3" y2="4089"/>
		<line class="st4" x1="1939" y1="4175.1" x2="2975.3" y2="4175.1"/>
		<line class="st4" x1="1939" y1="4260.2" x2="2975.3" y2="4260.2"/>
		<line class="st4" x1="2041.8" y1="3023.1" x2="2041.8" y2="4337.9"/>
		<line class="st4" x1="2186" y1="3023.1" x2="2186" y2="4337.9"/>
		<line class="st4" x1="2359.8" y1="3026" x2="2359.8" y2="4337.9"/>
		<line class="st4" x1="2549.6" y1="3030.4" x2="2549.6" y2="4337.9"/>
		<line class="st4" x1="2740.5" y1="3023.1" x2="2740.5" y2="4337.9"/>
		<line class="st4" x1="2882.2" y1="3023.1" x2="2882.2" y2="4337.9"/>
	</g>
	<g>
		<g>
			<line class="st4" x1="1825.6" y1="4427.4" x2="3088.7" y2="4427.4"/>
			<line class="st4" x1="1825.6" y1="4518.3" x2="3088.7" y2="4518.3"/>
			<line class="st4" x1="1825.6" y1="4615.5" x2="3088.7" y2="4615.5"/>
			<line class="st4" x1="1825.6" y1="4718.1" x2="3088.7" y2="4718.1"/>
			<line class="st4" x1="1825.6" y1="4805.7" x2="3088.7" y2="4805.7"/>
			<line class="st4" x1="1825.6" y1="4910.5" x2="3088.7" y2="4910.5"/>
		</g>
		<line class="st4" x1="1971.1" y1="4337.9" x2="1971.1" y2="5000"/>
		<line class="st4" x1="2131.2" y1="4337.9" x2="2131.2" y2="5000"/>
		<line class="st4" x1="2291.3" y1="4342.5" x2="2291.3" y2="5000"/>
		<line class="st4" x1="2457.1" y1="4337.9" x2="2457.1" y2="5000"/>
		<line class="st4" x1="2632.7" y1="4342.5" x2="2632.7" y2="5000"/>
		<line class="st4" x1="2824.8" y1="4337.9" x2="2824.8" y2="5000"/>
		<line class="st4" x1="2956.4" y1="4342.5" x2="2956.4" y2="5000"/>
	</g>
	<path class="st1" d="M0,570.6c19.5,0,643.2,0,643.2,0V0H4.1L0,570.6z"/>
	<line class="st4" x1="4.1" y1="122.2" x2="643.2" y2="122.2"/>
	<line class="st4" x1="4.1" y1="285.3" x2="643.2" y2="285.3"/>
	<line class="st4" x1="4.1" y1="463.1" x2="643.2" y2="463.1"/>
	<line class="st13" x1="149.8" y1="0" x2="149.8" y2="570.6"/>
	<line class="st13" x1="406" y1="0" x2="406" y2="572.4"/>
	<g>
		<polygon class="st2" points="859.6,0 859.6,462.4 643.2,570.6 643.2,0 		"/>
		<line class="st12" x1="643.2" y1="122.2" x2="859.6" y2="65.5"/>
		<line class="st12" x1="643.2" y1="285.3" x2="859.6" y2="217.2"/>
		<line class="st12" x1="643.2" y1="463.1" x2="859.6" y2="370.3"/>
		<line class="st12" x1="733.2" y1="0" x2="733.2" y2="528.4"/>
		<line class="st12" x1="807.9" y1="0" x2="807.9" y2="476.1"/>
	</g>
	<polygon class="st2" points="2073.4,0 2073.4,811.2 1565.7,926.3 1565.7,0 	"/>
	<line class="st4" x1="1565.7" y1="93.9" x2="2073.4" y2="74.4"/>
	<line class="st4" x1="1565.7" y1="235.1" x2="2073.4" y2="195.6"/>
	<line class="st4" x1="1565.7" y1="374.1" x2="2073.4" y2="314.2"/>
	<line class="st4" x1="1565.7" y1="524.6" x2="2073.4" y2="455.7"/>
	<line class="st4" x1="1565.7" y1="638.1" x2="2073.4" y2="570.6"/>
	<line class="st4" x1="1565.7" y1="759.2" x2="2073.4" y2="684"/>
	<polygon class="st1" points="1003.9,0 1003.9,753.2 1565.7,926.2 1565.7,0 	"/>
	<line class="st4" x1="1003.9" y1="78.2" x2="1565.7" y2="93.9"/>
	<line class="st4" x1="1003.9" y1="208.3" x2="1565.7" y2="235.1"/>
	<line class="st4" x1="1003.9" y1="332" x2="1565.7" y2="374.1"/>
	<line class="st4" x1="1003.9" y1="463.1" x2="1565.7" y2="524.6"/>
	<line class="st4" x1="1003.9" y1="636.8" x2="1565.7" y2="759.2"/>
	<line class="st4" x1="1003.9" y1="552.6" x2="1565.7" y2="638.1"/>
	<line class="st4" x1="1113.8" y1="5.3" x2="1113.8" y2="787.7"/>
	<line class="st4" x1="1300.8" y1="5.3" x2="1300.8" y2="845.5"/>
	<line class="st4" x1="1764" y1="5.3" x2="1764" y2="881"/>
	<line class="st4" x1="1943.1" y1="5.3" x2="1943.1" y2="840.9"/>
	<polygon class="st2" points="2369.8,0 2369.8,658.3 2073.4,684 2073.4,0 	"/>
	<polygon class="st2" points="2500,0 2499.5,541.9 2369.8,658.3 2369.8,0 	"/>
	<line class="st4" x1="2073.4" y1="98.6" x2="2369.8" y2="84.2"/>
	<line class="st4" x1="2073.4" y1="215.3" x2="2369.8" y2="190.5"/>
	<line class="st4" x1="2073.4" y1="329.1" x2="2369.8" y2="300.1"/>
	<line class="st4" x1="2073.4" y1="439.1" x2="2369.8" y2="394.5"/>
	<line class="st4" x1="2073.4" y1="530.9" x2="2369.8" y2="485"/>
	<line class="st4" x1="2073.4" y1="617.5" x2="2369.8" y2="578.1"/>
	<line class="st4" x1="2369.8" y1="84.2" x2="2499.9" y2="62.9"/>
	<line class="st4" x1="2369.8" y1="190.5" x2="2499.8" y2="162.4"/>
	<line class="st4" x1="2369.8" y1="300.1" x2="2499.7" y2="265.4"/>
	<line class="st4" x1="2369.8" y1="394.5" x2="2499.7" y2="353.1"/>
	<line class="st4" x1="2369.8" y1="485" x2="2499.6" y2="434"/>
	<line class="st4" x1="2369.8" y1="578.1" x2="2499.5" y2="493.9"/>
	<line class="st4" x1="2163.3" y1="5.3" x2="2163.3" y2="672.8"/>
	<line class="st4" x1="2434.7" y1="5.3" x2="2434.7" y2="595.7"/>
	<polygon class="st6" points="2669.3,0 2669.3,570.6 3189.3,753.3 3189.3,0 	"/>
	<line class="st14" x1="2669.3" y1="50.2" x2="3189.3" y2="56.6"/>
	<line class="st14" x1="2669.3" y1="121.6" x2="3189.3" y2="140.7"/>
	<line class="st14" x1="2669.3" y1="202.9" x2="3189.3" y2="238.9"/>
	<line class="st14" x1="2669.3" y1="277.2" x2="3189.3" y2="329.1"/>
	<line class="st14" x1="2669.3" y1="358.8" x2="3189.3" y2="422.6"/>
	<line class="st14" x1="2669.3" y1="430.2" x2="3189.3" y2="527.1"/>
	<line class="st14" x1="2669.3" y1="500.3" x2="3189.3" y2="644.4"/>
	<line class="st14" x1="2750.5" y1="0" x2="2750.5" y2="597.8"/>
	<line class="st14" x1="2960.2" y1="0" x2="2960.2" y2="672.8"/>
	<polygon class="st10" points="3431.5,0 3431.5,987.9 4132.5,811.2 4132.5,0 	"/>
	<line class="st15" x1="3310.4" y1="0" x2="3310.4" y2="903.2"/>
	<polygon class="st9" points="3189.3,0 3189.3,818.4 3431.5,987.9 3431.5,0 	"/>
	<line class="st11" x1="3189.3" y1="684" x2="3431.5" y2="837"/>
	<line class="st11" x1="3189.3" y1="585.8" x2="3431.5" y2="718.4"/>
	<line class="st11" x1="3189.3" y1="473.6" x2="3431.5" y2="588.3"/>
	<line class="st11" x1="3189.3" y1="369" x2="3431.5" y2="469.7"/>
	<line class="st11" x1="3189.3" y1="274.6" x2="3431.5" y2="362.6"/>
	<line class="st11" x1="3189.3" y1="185.4" x2="3431.5" y2="265.7"/>
	<line class="st11" x1="3189.3" y1="97.4" x2="3431.5" y2="161.1"/>
	<line class="st11" x1="3189.3" y1="27.2" x2="3431.5" y2="82.1"/>
	<line class="st11" x1="3431.5" y1="837" x2="4132.5" y2="690.3"/>
	<line class="st11" x1="3431.5" y1="718.4" x2="4132.5" y2="578.1"/>
	<line class="st11" x1="3431.5" y1="588.3" x2="4132.5" y2="468.5"/>
	<line class="st11" x1="3431.5" y1="469.7" x2="4132.5" y2="362.6"/>
	<line class="st11" x1="3431.5" y1="362.6" x2="4132.5" y2="267"/>
	<line class="st11" x1="3431.5" y1="265.7" x2="4132.5" y2="180.3"/>
	<line class="st11" x1="3431.5" y1="161.1" x2="4132.5" y2="96.1"/>
	<line class="st11" x1="3431.5" y1="82.1" x2="4132.5" y2="22.1"/>
	<line class="st11" x1="3685.1" y1="0" x2="3685.1" y2="920.9"/>
	<line class="st11" x1="3920.4" y1="0" x2="3920.4" y2="861.7"/>
	<path class="st2" d="M4323.2,0c0,19.2,0,663.4,0,663.4l-190.7,61.8V0H4323.2z"/>
	<g>
		<line class="st4" x1="4137.3" y1="643.1" x2="4319.8" y2="582.3"/>
		<line class="st4" x1="4137.3" y1="567.8" x2="4319.8" y2="511.4"/>
		<line class="st4" x1="4137.3" y1="497.5" x2="4319.8" y2="447"/>
		<line class="st4" x1="4137.3" y1="426.7" x2="4319.8" y2="375.7"/>
		<line class="st4" x1="4137.3" y1="340.7" x2="4319.8" y2="297.7"/>
		<line class="st4" x1="4137.3" y1="240.7" x2="4319.8" y2="204.1"/>
		<line class="st4" x1="4137.3" y1="161.1" x2="4319.8" y2="128.3"/>
		<line class="st4" x1="4137.3" y1="83.9" x2="4319.8" y2="54.3"/>
		<line class="st4" x1="4216" y1="0" x2="4216" y2="692.4"/>
	</g>
	<rect x="4524.2" class="st9" width="475.8" height="617.5"/>
	<g>
		<line class="st11" x1="4528.4" y1="548.5" x2="4996.2" y2="556"/>
		<line class="st11" x1="4528.4" y1="493.1" x2="4996.2" y2="500.6"/>
		<line class="st11" x1="4528.4" y1="436.5" x2="4996.2" y2="447.8"/>
		<line class="st11" x1="4528.4" y1="375.5" x2="4996.2" y2="381.6"/>
		<line class="st11" x1="4528.4" y1="323.2" x2="4996.2" y2="329.9"/>
		<line class="st11" x1="4528.4" y1="270.7" x2="4996.2" y2="278.1"/>
		<line class="st11" x1="4528.4" y1="218.9" x2="4996.2" y2="225.7"/>
		<line class="st11" x1="4528.4" y1="165.9" x2="4996.2" y2="169.6"/>
		<line class="st11" x1="4528.4" y1="120.3" x2="4996.2" y2="121.5"/>
		<line class="st11" x1="4528.4" y1="67.3" x2="4996.2" y2="67.3"/>
		<line class="st11" x1="4619.5" y1="5.6" x2="4619.5" y2="615.2"/>
		<line class="st11" x1="4819.5" y1="5.6" x2="4819.5" y2="615"/>
	</g>
	<polygon class="st9" points="2479.1,265.4 2468.6,423.4 2468.6,818.4 2479.1,818.4 	"/>
	<g>
		<path class="st16" d="M3149.2,2561.2v1568.9c161.5-28,323-56.1,484.5-84.1c0-263.8,0-527.7,0-791.5
			c49.5-32.1,98.9-64.2,148.4-96.2c0-248.6,0-497.1,0-745.7L3149.2,2561.2z"/>
		<path class="st17" d="M3275.9,2222.5l-126.7,338.7l632.9-148.6V2307c66.4-87.5,132.7-175,199.1-262.5
			C3746,2103.8,3511,2163.1,3275.9,2222.5z"/>
		<g>
			<line class="st18" x1="3153.1" y1="2642.6" x2="3782" y2="2500"/>
			<line class="st18" x1="3153.1" y1="2724.7" x2="3782" y2="2589.9"/>
			<line class="st18" x1="3153.1" y1="2812.6" x2="3782" y2="2674.9"/>
			<line class="st18" x1="3153.1" y1="2900.5" x2="3782" y2="2765.7"/>
			<line class="st18" x1="3153.1" y1="2989.5" x2="3782" y2="2856.5"/>
			<line class="st18" x1="3153.1" y1="3082.9" x2="3782" y2="2954.5"/>
			<line class="st18" x1="3153.1" y1="3187.6" x2="3782" y2="3058.7"/>
			<line class="st18" x1="3153.1" y1="3284.4" x2="3782" y2="3158.2"/>
			<line class="st18" x1="3153.1" y1="3375.1" x2="3634.5" y2="3284.4"/>
			<line class="st18" x1="3153.1" y1="3464.6" x2="3634.5" y2="3375.1"/>
			<line class="st18" x1="3153.1" y1="3551.1" x2="3634.5" y2="3464.6"/>
			<line class="st18" x1="3153.1" y1="3641.7" x2="3634.5" y2="3551.1"/>
			<line class="st18" x1="3153.1" y1="3736.8" x2="3634.5" y2="3650.5"/>
			<line class="st18" x1="3153.1" y1="3830.2" x2="3634.5" y2="3736.8"/>
			<line class="st18" x1="3153.1" y1="3926.6" x2="3634.5" y2="3830.2"/>
			<line class="st18" x1="3153.1" y1="4010.6" x2="3634.5" y2="3915.2"/>
		</g>
		<path class="st10" d="M3782,2307v851.3l573.9-372.1v-451.4c0,0,216.1-213.9,209.8-207.7C4559.5,2133.2,3782,2307,3782,2307z"/>
		<polygon class="st9" points="4031,1978.6 3782,2307 4565.7,2127 4922.2,1774.3 		"/>
		<line class="st11" x1="3782" y1="2389.6" x2="4446.4" y2="2245.1"/>
		<line class="st11" x1="3782" y1="2465" x2="4355.9" y2="2353.8"/>
		<line class="st11" x1="3782" y1="2561.2" x2="4355.9" y2="2450.1"/>
		<line class="st11" x1="3782" y1="2646.1" x2="4363.5" y2="2534.2"/>
		<line class="st11" x1="3782" y1="2729.8" x2="4355.9" y2="2616.4"/>
		<line class="st11" x1="3782" y1="2824.6" x2="4355.9" y2="2711.2"/>
		<line class="st11" x1="3782" y1="2923" x2="4355.9" y2="2786.1"/>
		<line class="st11" x1="3782" y1="3004.8" x2="4161.4" y2="2912.2"/>
		<line class="st15" x1="3782" y1="3090.3" x2="3971.7" y2="3035.2"/>
		<polygon class="st10" points="3633.6,3254.5 3633.6,5000 4355.9,5000 4355.9,2786.1 		"/>
		<polygon class="st9" points="4355.9,3260.1 3633.6,3254.5 4355.9,2786.1 		"/>
		<g>
			<line class="st11" x1="3633.6" y1="3415.7" x2="4355.9" y2="3424"/>
			<line class="st11" x1="3633.6" y1="3551.1" x2="4355.9" y2="3551.1"/>
			<line class="st11" x1="3633.6" y1="3708.6" x2="4355.9" y2="3708.6"/>
			<line class="st11" x1="3633.6" y1="3830.2" x2="4355.9" y2="3830.2"/>
			<line class="st11" x1="3633.6" y1="3971.1" x2="4355.9" y2="3971.1"/>
			<line class="st11" x1="3633.6" y1="4112" x2="4355.9" y2="4112"/>
			<line class="st11" x1="3633.6" y1="4225.3" x2="4355.9" y2="4225.3"/>
			<line class="st11" x1="3633.6" y1="4389.8" x2="4355.9" y2="4389.8"/>
			<line class="st11" x1="3633.6" y1="4521.1" x2="4355.9" y2="4515.5"/>
			<line class="st11" x1="3633.6" y1="4668.9" x2="4355.9" y2="4668.9"/>
			<line class="st11" x1="3633.6" y1="4825" x2="4355.9" y2="4825"/>
			<line class="st11" x1="3633.6" y1="4946.6" x2="4355.9" y2="4946.6"/>
		</g>
		<polygon class="st2" points="5000,2556.8 4355.9,2334.7 5000,1697.2 		"/>
		<polygon class="st1" points="4355.9,5000 4355.9,2334.7 5000,2556.8 5000,5000 		"/>
		<line class="st4" x1="4355.9" y1="2531.4" x2="5000" y2="2760.8"/>
		<line class="st4" x1="4355.9" y1="2722.1" x2="5000" y2="2945.9"/>
		<line class="st4" x1="4355.9" y1="2878.4" x2="5000" y2="3100.7"/>
		<line class="st4" x1="4355.9" y1="3023.1" x2="5000" y2="3260.1"/>
		<line class="st4" x1="4355.9" y1="3167" x2="5000" y2="3401.9"/>
		<line class="st4" x1="4355.9" y1="3321.7" x2="5000" y2="3567.7"/>
		<line class="st4" x1="4355.9" y1="3490.3" x2="5000" y2="3736.2"/>
		<line class="st4" x1="4355.9" y1="3650.6" x2="5000" y2="3913.1"/>
		<line class="st4" x1="4355.9" y1="3781.8" x2="5000" y2="4048.5"/>
		<line class="st4" x1="4355.9" y1="3943.5" x2="5000" y2="4203.2"/>
		<line class="st4" x1="4355.9" y1="4112" x2="5000" y2="4366.3"/>
		<line class="st4" x1="4355.9" y1="4261.3" x2="5000" y2="4518.2"/>
		<line class="st4" x1="4355.9" y1="4443.6" x2="5000" y2="4700.6"/>
		<line class="st4" x1="4355.9" y1="4609.4" x2="5000" y2="4869.2"/>
		<line class="st4" x1="4355.9" y1="4808.4" x2="4866.4" y2="5000"/>
	</g>
	<path class="st19" d="M2499.5,2462.1"/>
	<g>
		<path class="st10" d="M2468.6,2185.5L2468.6,2185.5l-244.6,374c81.5-31.5,163-63,244.6-94.5V2185.5z"/>
		<path class="st9" d="M2713.1,2559.5l-244.5-374c0,93.1,0,186.3,0,279.5C2550.1,2496.5,2631.6,2528,2713.1,2559.5z"/>
		<path class="st20" d="M2468.6,2928.1L2468.6,2928.1l244.6-354.8c-81.5,32.6-163.1,65.2-244.6,97.8V2928.1z"/>
		<path class="st10" d="M2467.4,2671.6c-81.1-32.8-162.3-65.5-243.4-98.3l244.5,354.9v-257
			C2468.2,2671.3,2467.8,2671.4,2467.4,2671.6z"/>
		<path class="st9" d="M2224,2559.5c30.1,11.7,60.1,23.5,90.1,35.4c51.6,20.5,103.1,41.3,154.5,62.4V2465
			C2387,2496.5,2305.5,2528,2224,2559.5z"/>
		<path class="st20" d="M2713.1,2559.5L2713.1,2559.5c-40-16.4-80.2-32.4-120.5-48c-51.1-19.7-95.1-35.9-105.8-39.9
			c-7.7-2.8-14-5.1-18.2-6.7c0,64.1,0,128.2,0,192.3c40.8-16.3,81.5-32.6,122.3-48.9C2631.6,2592.1,2672.4,2575.8,2713.1,2559.5z"/>
	</g>
</g>
</svg>
