<?xml version="1.0" encoding="utf-8"?>
<!-- Generator: Adobe Illustrator 25.3.1, SVG Export Plug-In . SVG Version: 6.00 Build 0)  -->
<svg version="1.1" id="Layer_1" xmlns="http://www.w3.org/2000/svg" xmlns:xlink="http://www.w3.org/1999/xlink" x="0px" y="0px"
	 viewBox="0 0 5000 5000" style="enable-background:new 0 0 5000 5000;" xml:space="preserve">
<style type="text/css">
	.st0{fill:none;stroke:#6F3FF5;stroke-width:2;stroke-miterlimit:10;}
	.st1{fill:#5BF1CD;}
	.st2{fill:#01DEA9;}
	.st3{fill:#02E2AC;}
	.st4{fill:none;stroke:#F0587D;stroke-width:6;stroke-linecap:round;stroke-linejoin:round;stroke-miterlimit:10;}
	.st5{fill:none;stroke:#11BC92;stroke-width:6;stroke-linecap:round;stroke-linejoin:round;stroke-miterlimit:10;}
	.st6{fill:#D44D6E;}
	.st7{fill:#F579A6;}
	.st8{fill:#F3587D;}
	.st9{fill:none;stroke:#F279A5;stroke-width:6;stroke-linecap:round;stroke-linejoin:round;stroke-miterlimit:10;}
	.st10{fill:#6F3FF5;}
	.st11{fill:#8C65F7;}
	.st12{fill:none;stroke:#7767AE;stroke-width:6;stroke-linecap:round;stroke-linejoin:round;stroke-miterlimit:10;}
	.st13{fill:none;}
	.st14{fill:none;stroke:#11BC92;stroke-linecap:round;stroke-linejoin:round;stroke-miterlimit:10;}
	.st15{fill:none;stroke:#D44E6F;stroke-width:5;stroke-linecap:round;stroke-linejoin:round;stroke-miterlimit:10;}
	.st16{fill:none;stroke:#7767AE;stroke-linecap:round;stroke-linejoin:round;stroke-miterlimit:10;}
	.st17{fill:#FFDB4C;}
	.st18{fill:#E1B815;}
	.st19{fill:none;stroke:#FFCD05;stroke-width:6;stroke-linecap:round;stroke-linejoin:round;stroke-miterlimit:10;}
	.st20{fill:none;stroke:#20B790;stroke-linecap:round;stroke-linejoin:round;stroke-miterlimit:10;}
	.st21{fill:#5932C4;}
</style>
<g>
	<line class="st0" x1="2496.5" y1="-10.5" x2="5000" y2="3059.5"/>
	<line class="st0" x1="2500" y1="8.8" x2="5000" y2="4089.6"/>
	<line class="st0" x1="2496.5" y1="-10.5" x2="5000" y2="4993.6"/>
	<line class="st0" x1="2496.5" y1="-10.5" x2="4532.3" y2="4993.6"/>
	<line class="st0" x1="2500" y1="8.8" x2="5000" y2="2169.5"/>
	<line class="st0" x1="2495" y1="-1.2" x2="4076.2" y2="4993.6"/>
	<line class="st0" x1="2500" y1="8.8" x2="5000" y2="992.2"/>
	<line class="st0" x1="2500" y1="2.2" x2="3093.1" y2="5021.2"/>
	<line class="st0" x1="2500" y1="8.8" x2="2500" y2="4993.6"/>
	<line class="st0" x1="2496.5" y1="-10.5" x2="3634.2" y2="4993.6"/>
	<line class="st0" x1="2503.5" y1="-4.1" x2="0" y2="3065.8"/>
	<line class="st0" x1="2500" y1="15.2" x2="0" y2="4096"/>
	<line class="st0" x1="2503.5" y1="-4.1" x2="0" y2="5000"/>
	<line class="st0" x1="2503.5" y1="-4.1" x2="467.7" y2="5000"/>
	<line class="st0" x1="2500" y1="15.2" x2="0" y2="2175.8"/>
	<line class="st0" x1="2505" y1="5.2" x2="923.8" y2="5000"/>
	<line class="st0" x1="2500" y1="15.2" x2="0" y2="998.5"/>
	<line class="st0" x1="2500" y1="8.6" x2="1906.9" y2="5027.6"/>
	<line class="st0" x1="2503.5" y1="-4.1" x2="1365.8" y2="5000"/>
	<line class="st0" x1="899.8" y1="262.8" x2="4132.3" y2="262.8"/>
	<line class="st0" x1="53.1" y1="385" x2="4919.9" y2="385"/>
	<line class="st0" x1="0" y1="554.3" x2="5000" y2="554.3"/>
	<line class="st0" x1="0" y1="844.5" x2="5000" y2="844.5"/>
	<line class="st0" x1="0" y1="1239.1" x2="5000" y2="1239.1"/>
	<line class="st0" x1="0" y1="1984.2" x2="5000" y2="1984.2"/>
	<line class="st0" x1="0" y1="3065.8" x2="5000" y2="3065.8"/>
	<line class="st0" x1="2500" y1="8.8" x2="4996.5" y2="397.9"/>
	<line class="st0" x1="2500" y1="8.8" x2="3.5" y2="397.9"/>
</g>
<ellipse class="st1" cx="1942.4" cy="2186.1" rx="26.4" ry="26.4"/>
<path class="st2" d="M2072.3,2389.4c-1.3,0-2.7,0-4,0c-18.4-1.6-36.3-5.6-54.2-9.7c-20.3-4.6-40.1-11.1-60.2-16.6
	c-40.6-11.1-79.7-26.3-118.2-42.9c-41.9-18-82.7-38.7-121.5-62.7c-23.3-14.5-46-30-68-46.5c-48.6-36.3-99.4-69.2-152.2-99.2
	c-44.9-25.5-90.8-49.1-137.3-71.5c-49.6-23.9-100.1-46-151.2-66.6c-40-16.1-79.9-32.6-120.1-48.1c-58.3-22.5-117.3-42.7-177.6-59.2
	c-48.9-13.4-98.2-24.7-147.9-34.1c-39.3-7.5-78.7-13.5-118.4-18.4c-23.8-2.9-47.6-5.5-71.5-7.3c-5.3-0.4-6.9-1.9-7.1-7.1
	c-0.6-16.3,0.9-32.5,1.6-48.8c0-1.2,0.3-2.3,0.3-3.5c-0.6-14.1,0.5-28.3,1.3-42.4c1.7-32.6,1-65.2,2.1-97.7
	c0.8-26-0.2-51.9,0.8-77.8c1.2-32.9,0-65.9,1.2-98.8c0.9-24.3,0.3-48.6,0.7-72.8c0.1-7.5-0.4-8.3-7.5-11
	c-36.6-13.8-73.2-27.6-109.8-41.5c-43.3-16.4-86.6-32.8-129.9-49.1c-38.8-14.6-77.6-29.3-116.3-43.9
	c-48.1-18.2-96.3-36.3-144.4-54.5c-18.5-7-37-14.1-55.6-21c-4.2-1.6-5.7-4-5.8-8.5c-0.9-29.8,0.1-59.6-0.4-89.3
	c-0.7-34.3,0.1-68.6-0.5-102.9c-0.6-31.8-0.1-63.5-0.4-95.3c0-1.6,0.5-3.3-0.5-4.9c0-31,0-61.9,0.1-92.9c0-1.3-1.1-3.1,0.9-4
	c3,1.7,5,4.2,6.9,7c21.3,31.5,45.2,61,73.1,87c39.9,37.1,85.1,65.5,137.6,81.5c17.7,5.4,35.9,8.6,54.4,10c25.2,1.9,50.2,0.7,75.2-2
	c39.4-4.2,79-6.4,118.6-5c19.8,0.7,39.4,3.9,58.8,8.2c40,8.9,78.1,23.3,115.3,40.3c24.8,11.3,48.3,24.7,70.9,39.8
	c39.5,26.3,83.3,41.3,129.5,50.3c21.2,4.1,42.6,7,64.3,8.3c16,1,32,1.1,47.9,0.5c19.4-0.6,38.9-1.2,58.3-2
	c45.9-1.9,91,3.1,135.8,12.3c35.8,7.4,69.7,19.6,102.7,35.4c38,18.2,75.8,36.7,114.7,52.9c27.5,11.5,55.2,22.4,83.3,32.4
	c58.9,21.2,119.8,35.1,180.4,49.9c52.9,12.9,106.1,24.3,159.3,36c33.3,7.3,66.4,15.6,99,26c10.8,3.4,21.2,7.8,31.7,12.2
	c37.6,15.8,76.7,26.5,116.4,35.5c30.1,6.8,60.5,11.6,91.1,14.8c14.9,1.6,29.8,3.2,44.8,3.3c0.8,0,1.7,0,2.5,0.1
	c9.4,0.8,9.7,1.1,9.7,10.4c0,177.7,0,355.5,0,533.2c0,7.8-0.3,8.2-8,8.3c-14.8,0.1-29.6,0-44.5,0.1c-7.3,0-8.2,0.7-9.9,7.8
	c-15.1,61.2-29.9,122.5-44.7,183.8c-0.9,3.8-0.9,7.6-0.9,11.4c0,83.5,0,167.1-0.1,250.6C2074.7,2382.7,2075.7,2386.6,2072.3,2389.4z
	"/>
<ellipse transform="matrix(0.26 -0.9656 0.9656 0.26 -1024.8607 1714.4971)" class="st1" cx="606.2" cy="1525.9" rx="92.7" ry="299.9"/>
<path class="st3" d="M4999.3,1051.5V886c-0.4-89-0.8-177.9-1.2-266.9c-10.3,6.3-27.5,16.5-49.3,28.1
	c-30.9,16.4-230.4,107.8-431.5,111.5c-38.3,0.7-76.6-0.9-114.7-5c-35.9-3.9-73.5-11-109.3-2.2c-38.8,9.5-59,39.9-82.7,69.4
	c-24.1,30-49.6,44-78.2,65.1c-22.8,16.8-52,38.3-86.9,54.9c-53.9,25.6-99.8,29.3-125.5,32.5c-80.7,10.2-112.1,41.4-242.9,85
	c-161.4,53.7-324.3,102.7-488.6,146.6c-94.8,25.4-144.2,29.9-233.7,61.1c-91.8,32.1-164.1,67.3-211.7,92.7
	c-0.4,179.7-0.8,359.3-1.2,539c0.8-0.1,1.7-0.2,2.5-0.4c-0.8,1.5-1.7,3-2.5,4.5h61.5c12.2,65.8,24.5,131.6,36.7,197.4
	c0.4,32,0.9,64,1.3,96c248.1-19,370.1-90.2,435.6-156.2c18.5-18.7,96.1-101.1,204.4-145.4c52.6-21.6,100-28.9,109-30.4
	c39-6.6,78.3-6.3,117.6-2.9c76.1,6.7,150.8,21.9,227.5,14.8c59.2-5.5,58.1-14,202.4-53.4c208.4-56.9,276.1-49.9,338.7-119.1
	c36.3-40.1,14.1-43.1,54.3-97c81.9-109.7,186.3-113.9,417.7-246.1c23.6-13.5,42.1-24.7,52-30.7
	C5000.2,1236.4,4999.8,1143.9,4999.3,1051.5z M2840.1,1644.5c-14.6,0-26.4-11.8-26.4-26.4s11.8-26.4,26.4-26.4
	c14.6,0,26.4,11.8,26.4,26.4S2854.7,1644.5,2840.1,1644.5z M2886.4,1458.4c-23.5,8.8-44.7,10-47.5,2.8c-2.7-7.3,14.1-20.3,37.6-29.1
	c23.5-8.8,44.7-10,47.5-2.8C2926.7,1436.6,2909.9,1449.6,2886.4,1458.4z M3125.1,2021.5c-81.2,30.4-154.6,34.7-164.1,9.6
	c-9.5-25.1,48.8-70,130-100.5c81.2-30.4,154.6-34.7,164.1-9.6S3206.3,1991.1,3125.1,2021.5z M3431.5,1544.5
	c-119.5,44.7-227.6,51-241.5,14.2c-13.9-37,71.8-103.1,191.3-147.8c119.5-44.7,227.6-51,241.5-14.2
	C3636.7,1433.7,3551,1499.9,3431.5,1544.5z M3621.4,1705.9c-14.6,0-26.4-11.8-26.4-26.4s11.8-26.4,26.4-26.4s26.4,11.8,26.4,26.4
	C3647.8,1694.1,3636,1705.9,3621.4,1705.9z M3692.3,1208.9c-23.5,8.8-44.7,10-47.5,2.8c-2.7-7.3,14.1-20.3,37.6-29.1
	s44.7-10,47.5-2.8C3732.6,1187,3715.8,1200.1,3692.3,1208.9z M3865.8,1670.6c-11.7,4.4-22.4,5-23.7,1.4c-1.3-3.6,7.1-10.1,18.8-14.5
	c11.7-4.4,22.4-5,23.7-1.4C3885.9,1659.7,3877.5,1666.2,3865.8,1670.6z M4382.8,1424.7c-11.7,4.4-22.4,5-23.7,1.4
	c-1.3-3.6,7.1-10.1,18.8-14.5c11.7-4.4,22.4-5,23.7-1.4C4403,1413.8,4394.5,1420.3,4382.8,1424.7z M4302.1,1209.7
	c-150.1,56.2-285.9,64.1-303.3,17.8c-17.4-46.3,90.2-129.5,240.3-185.7c150.1-56.1,285.9-64.1,303.3-17.8
	C4559.8,1070.3,4452.2,1153.5,4302.1,1209.7z M4752.3,1308.8c-23.5,8.8-44.7,10-47.5,2.8c-2.8-7.2,14.1-20.3,37.6-29.1
	s44.7-10,47.5-2.8S4775.8,1300,4752.3,1308.8z M4823.8,866.6c-23.5,8.8-44.7,10-47.5,2.8c-2.7-7.3,14.1-20.3,37.6-29.1
	s44.7-10,47.5-2.8C4864,844.7,4847.2,857.8,4823.8,866.6z"/>
<path class="st1" d="M358.7,1064.6c13.3-49.4-105.5-124.4-265.4-167.5c-31-8.3-61.2-14.9-89.9-19.6v186.4
	c13.5,4.3,27.3,8.4,41.5,12.2C204.9,1119.2,345.3,1114.1,358.7,1064.6z"/>
<ellipse transform="matrix(0.26 -0.9656 0.9656 0.26 -323.0297 2278.4839)" class="st1" cx="1325.1" cy="1350" rx="24.9" ry="80.4"/>
<ellipse transform="matrix(0.26 -0.9656 0.9656 0.26 -257.6599 3071.5471)" class="st1" cx="1875.2" cy="1703.9" rx="92.7" ry="299.9"/>
<path class="st1" d="M2876.5,1432.1c-23.5,8.8-40.3,21.8-37.6,29.1c2.7,7.3,24,6,47.5-2.8c23.5-8.8,40.3-21.8,37.6-29.1
	C2921.3,1422.1,2900,1423.3,2876.5,1432.1z"/>
<path class="st1" d="M4813.8,840.3c-23.5,8.8-40.3,21.8-37.6,29.1c2.7,7.3,24,6,47.5-2.8c23.5-8.8,40.3-21.8,37.6-29.1
	S4837.3,831.5,4813.8,840.3z"/>
<ellipse transform="matrix(0.9366 -0.3505 0.3505 0.9366 -495.3856 1214.8832)" class="st1" cx="3108.3" cy="1975.9" rx="157" ry="48.5"/>
<path class="st1" d="M3682.4,1182.6c-23.5,8.8-40.3,21.8-37.6,29.1c2.7,7.3,24,6,47.5-2.8c23.5-8.8,40.3-21.8,37.6-29.1
	C3727.1,1172.5,3705.9,1173.8,3682.4,1182.6z"/>
<ellipse transform="matrix(0.9366 -0.3505 0.3505 0.9366 -123.5324 1568.3778)" class="st1" cx="4270.7" cy="1125.4" rx="290.2" ry="89.7"/>
<path class="st1" d="M4742.5,1282.6c-23.5,8.8-40.3,21.8-37.6,29.1c2.7,7.3,24,6,47.5-2.8c23.5-8.8,40.3-21.8,37.6-29.1
	C4787.2,1272.5,4766,1273.8,4742.5,1282.6z"/>
<ellipse transform="matrix(0.9366 -0.3505 0.3505 0.9366 -301.7584 1287.8605)" class="st1" cx="3406.7" cy="1477.5" rx="231.1" ry="71.4"/>
<ellipse transform="matrix(0.9366 -0.3505 0.3505 0.9366 -338.1035 1459.8102)" class="st1" cx="3863.5" cy="1663.9" rx="22.7" ry="7"/>
<path class="st1" d="M4377.8,1411.5c-11.7,4.4-20.2,10.9-18.8,14.5c1.4,3.6,12,3,23.7-1.4s20.2-10.9,18.8-14.5
	C4400.2,1406.5,4389.5,1407.1,4377.8,1411.5z"/>
<path class="st1" d="M713.9,1215.8c11.7-4.4,20.2-10.9,18.8-14.5s-12-3-23.7,1.4c-11.7,4.4-20.2,10.9-18.8,14.5
	C691.6,1220.8,702.2,1220.2,713.9,1215.8z"/>
<ellipse transform="matrix(0.9366 -0.3505 0.3505 0.9366 -382.5408 765.0806)" class="st1" cx="1922.2" cy="1439.3" rx="22.7" ry="7"/>
<path class="st1" d="M1302.8,1476.2c-11.7,4.4-20.2,10.9-18.8,14.5c1.4,3.6,12,3,23.7-1.4c11.7-4.4,20.2-10.9,18.8-14.5
	C1325.1,1471.2,1314.5,1471.8,1302.8,1476.2z"/>
<path class="st1" d="M1837.8,2024.9c-11.7,4.4-20.2,10.9-18.8,14.5c1.4,3.6,12,3,23.7-1.4c11.7-4.4,20.2-10.9,18.8-14.5
	C1860.1,2019.9,1849.5,2020.5,1837.8,2024.9z"/>
<ellipse class="st1" cx="409" cy="1140.6" rx="26.4" ry="26.4"/>
<ellipse class="st1" cx="1374.3" cy="1747.6" rx="26.4" ry="26.4"/>
<ellipse class="st1" cx="1029.6" cy="1114.3" rx="26.4" ry="26.4"/>
<ellipse class="st1" cx="2088.5" cy="1476.3" rx="26.4" ry="26.4"/>
<ellipse class="st1" cx="726" cy="1741" rx="26.4" ry="26.4"/>
<ellipse class="st1" cx="3621.4" cy="1679.6" rx="26.4" ry="26.4"/>
<ellipse transform="matrix(1.284456e-03 -1 1 1.284456e-03 1218.6389 4456.2959)" class="st1" cx="2840.3" cy="1618" rx="26.4" ry="26.4"/>
<polygon class="st3" points="2978.4,4005.5 3051.7,4005.5 3091.2,4332.4 2978.4,4332.4 "/>
<line class="st4" x1="530.3" y1="5000" x2="681.8" y2="4880.2"/>
<rect x="2072.7" y="2089.9" class="st1" width="767.4" height="924.9"/>
<polygon class="st3" points="2072.7,2099.3 2120.7,1901.9 2183.3,1901.9 2183.3,2099.3 "/>
<polygon class="st3" points="2741.9,1901.9 2803.4,1901.9 2840.1,2099.3 2741.9,2099.3 "/>
<line class="st5" x1="2072.7" y1="2164.1" x2="2840.1" y2="2164.1"/>
<line class="st5" x1="2072.7" y1="2954.8" x2="2840.1" y2="2954.8"/>
<g>
	<path class="st6" d="M-0.7,3457c12.8,0,531,89.9,531,89.9v1446.8h-531V3457z"/>
	<polygon class="st7" points="530.3,3546.8 681.8,3336.6 -0.7,3170.6 -0.7,3457 	"/>
	<polygon class="st8" points="681.8,3336.6 681.8,4993.6 530.3,4993.6 530.3,3546.8 	"/>
	<line class="st9" x1="-0.7" y1="3591.9" x2="530.3" y2="3672.1"/>
	<line class="st9" x1="-0.7" y1="3726.5" x2="530.3" y2="3806.7"/>
	<line class="st9" x1="-0.7" y1="3872.3" x2="530.3" y2="3938.5"/>
	<line class="st9" x1="-0.7" y1="4043.4" x2="530.3" y2="4109.6"/>
	<line class="st4" x1="-0.7" y1="4197.9" x2="530.3" y2="4264.1"/>
	<line class="st4" x1="-0.7" y1="4366.2" x2="530.3" y2="4429.7"/>
	<line class="st4" x1="-0.7" y1="4509.8" x2="530.3" y2="4578.8"/>
	<line class="st4" x1="-0.7" y1="4678" x2="530.3" y2="4730.5"/>
	<line class="st4" x1="-0.7" y1="4824.4" x2="530.3" y2="4876.8"/>
	<line class="st4" x1="530.3" y1="3672.1" x2="681.8" y2="3494.1"/>
	<line class="st4" x1="530.3" y1="3806.7" x2="681.8" y2="3632.1"/>
	<line class="st4" x1="530.3" y1="3938.5" x2="681.8" y2="3766.6"/>
	<line class="st4" x1="530.3" y1="4109.6" x2="681.8" y2="3946.8"/>
	<line class="st4" x1="530.3" y1="4264.1" x2="681.8" y2="4101.3"/>
	<line class="st4" x1="530.3" y1="4429.7" x2="681.8" y2="4269.7"/>
	<line class="st4" x1="530.3" y1="4578.8" x2="681.8" y2="4418.7"/>
	<line class="st4" x1="530.3" y1="4730.5" x2="681.8" y2="4567.7"/>
	<line class="st4" x1="530.3" y1="4876.8" x2="681.8" y2="4730.5"/>
	<polygon class="st10" points="224.7,3225.4 494.7,2845.4 -0.7,2713.9 -0.7,3170.6 	"/>
	<polygon class="st11" points="494.7,3291.1 494.7,2845.4 224.7,3225.4 	"/>
	<line class="st12" x1="323.3" y1="3249.5" x2="494.7" y2="3024.9"/>
	<line class="st12" x1="423.6" y1="3273.8" x2="494.7" y2="3170.6"/>
	<polygon class="st6" points="359.7,2809.5 -0.7,2713.9 3.4,1445.3 359.7,1562.3 	"/>
	<path class="st6" d="M574.2,1326.8l-214.5,235.5v1247.3c66.8-81.6,133.6-163.1,200.3-244.7C564.8,2152.2,569.5,1739.5,574.2,1326.8
		z"/>
	<path class="st7" d="M3.4,1111.3c190.3,71.8,380.5,143.6,570.8,215.5l-214.5,235.5L3.4,1445.3C3.4,1334,3.4,1222.6,3.4,1111.3z"/>
	<line class="st13" x1="-0.7" y1="1562.3" x2="359.7" y2="1688.4"/>
	<line class="st13" x1="3.4" y1="1703.8" x2="359.7" y2="1837.2"/>
	<line class="st13" x1="-0.7" y1="1821.9" x2="359.7" y2="1966.2"/>
	<line class="st13" x1="-0.7" y1="1975" x2="359.7" y2="2127.4"/>
	<line class="st13" x1="-0.7" y1="2114.9" x2="359.7" y2="2268"/>
	<line class="st13" x1="-0.7" y1="2272.4" x2="359.7" y2="2432"/>
	<line class="st13" x1="3.4" y1="2418.9" x2="359.7" y2="2574.2"/>
	<line class="st13" x1="3.4" y1="2545.8" x2="359.7" y2="2690.1"/>
	<line class="st13" x1="359.7" y1="1688.4" x2="572.5" y2="1476.3"/>
	<line class="st13" x1="359.7" y1="1837.2" x2="570.6" y2="1644.8"/>
	<line class="st13" x1="359.7" y1="1966.2" x2="565.4" y2="1782.6"/>
	<line class="st13" x1="359.7" y1="2127.4" x2="567.3" y2="1935.5"/>
	<line class="st13" x1="359.7" y1="2268" x2="565.3" y2="2104.1"/>
	<line class="st13" x1="359.7" y1="2432" x2="563.6" y2="2259.3"/>
	<line class="st13" x1="359.7" y1="2574.2" x2="562" y2="2397.1"/>
	<line class="st13" x1="359.7" y1="2690.1" x2="561" y2="2485.6"/>
</g>
<rect x="2330" y="853.4" class="st1" width="265.2" height="441.5"/>
<polygon class="st3" points="2595.2,853.4 2330,853.4 2386,774.5 2564.3,774.5 "/>
<g>
	<line class="st5" x1="2330" y1="913.7" x2="2595.2" y2="913.7"/>
	<line class="st5" x1="2330" y1="969.6" x2="2595.2" y2="969.6"/>
	<line class="st5" x1="2330" y1="1040.5" x2="2595.2" y2="1040.5"/>
	<line class="st5" x1="2330" y1="1114.3" x2="2595.2" y2="1114.3"/>
	<line class="st5" x1="2330" y1="1179" x2="2595.2" y2="1179"/>
	<line class="st5" x1="2330" y1="1243.7" x2="2595.2" y2="1243.7"/>
	<line class="st5" x1="2402.3" y1="853.4" x2="2402.3" y2="1298.7"/>
	<line class="st5" x1="2510" y1="853.4" x2="2510" y2="1298.7"/>
</g>
<rect x="2183.3" y="1292.8" class="st1" width="558.6" height="804.4"/>
<polygon class="st3" points="2183.3,1294.9 2244.8,1137 2330,1137 2330,1294.9 "/>
<polygon class="st3" points="2595.2,1137 2707.5,1137 2741.9,1294.9 2595.2,1294.9 "/>
<g>
	<line class="st5" x1="2183.3" y1="1356.6" x2="2741.9" y2="1356.6"/>
	<line class="st5" x1="2183.3" y1="1426.5" x2="2741.9" y2="1426.5"/>
	<line class="st5" x1="2183.3" y1="1493.8" x2="2741.9" y2="1493.8"/>
	<line class="st5" x1="2183.3" y1="1562.3" x2="2741.9" y2="1562.3"/>
	<line class="st5" x1="2183.3" y1="1618.1" x2="2741.9" y2="1618.1"/>
	<line class="st5" x1="2183.3" y1="1686.6" x2="2741.9" y2="1686.6"/>
	<line class="st5" x1="2183.3" y1="1747.6" x2="2741.9" y2="1747.6"/>
	<line class="st5" x1="2183.3" y1="1826.3" x2="2741.9" y2="1826.3"/>
	<line class="st5" x1="2183.3" y1="1897.8" x2="2741.9" y2="1897.8"/>
	<line class="st5" x1="2183.3" y1="1976.1" x2="2741.9" y2="1976.1"/>
	<line class="st5" x1="2183.3" y1="2047.1" x2="2741.9" y2="2047.1"/>
	<line class="st5" x1="2266.1" y1="1294.9" x2="2266.1" y2="2095.2"/>
	<line class="st5" x1="2358.4" y1="1294.9" x2="2358.4" y2="2095.2"/>
	<line class="st5" x1="2456.4" y1="1294.9" x2="2456.4" y2="2095.2"/>
	<line class="st5" x1="2549.6" y1="1294.9" x2="2549.6" y2="2095.2"/>
	<line class="st5" x1="2652.8" y1="1294.9" x2="2652.8" y2="2095.2"/>
</g>
<polygon class="st3" points="1934.5,3012 1996.5,2737.5 2072.7,2737.5 2072.7,3012 "/>
<polygon class="st3" points="2840.1,2737.5 2916.3,2737.5 2978.4,3012 2840.1,3012 "/>
<rect x="1816" y="4328.8" class="st1" width="1275.3" height="664.9"/>
<polygon class="st3" points="1816,4332.4 1866.8,4005.5 1934.5,4005.5 1934.5,4332.4 "/>
<rect x="1030.3" y="3766.6" class="st11" width="717.4" height="1227"/>
<polygon class="st10" points="1226.3,3225.4 1030.3,3766.6 1747.7,3766.6 1875.2,3256 "/>
<path class="st10" d="M1875.2,3256L1875.2,3256l-127.5,510.6v1227.1h68.3v-661.3c16.9-109,33.9-217.9,50.8-326.9
	C1869.6,3755.6,1872.4,3505.8,1875.2,3256z"/>
<line class="st13" x1="1030.3" y1="3852.5" x2="1747.7" y2="3852.5"/>
<line class="st13" x1="1030.3" y1="3950.5" x2="1747.7" y2="3952.3"/>
<line class="st13" x1="1030.3" y1="4028.2" x2="1747.7" y2="4028.2"/>
<line class="st13" x1="1030.3" y1="4107" x2="1747.7" y2="4114.3"/>
<line class="st13" x1="1030.3" y1="4182.7" x2="1747.7" y2="4182.7"/>
<line class="st13" x1="1030.3" y1="4279.8" x2="1747.7" y2="4276.3"/>
<line class="st13" x1="1030.3" y1="4372.7" x2="1747.7" y2="4370.8"/>
<line class="st13" x1="1030.3" y1="4471" x2="1747.7" y2="4467.3"/>
<line class="st13" x1="1030.3" y1="4574.7" x2="1747.7" y2="4569.3"/>
<line class="st13" x1="1030.3" y1="4649.1" x2="1747.7" y2="4649.1"/>
<line class="st13" x1="1030.3" y1="4757.3" x2="1747.7" y2="4755.5"/>
<line class="st13" x1="1030.3" y1="4856.8" x2="1747.7" y2="4856.8"/>
<line class="st13" x1="1030.3" y1="4932.2" x2="1747.7" y2="4926.8"/>
<line class="st13" x1="1747.7" y1="3852.5" x2="1875.2" y2="3393.6"/>
<line class="st13" x1="1747.7" y1="3952.3" x2="1872.3" y2="3511.8"/>
<line class="st13" x1="1747.7" y1="4028.2" x2="1871.3" y2="3602.8"/>
<line class="st13" x1="1747.7" y1="4114.3" x2="1870.4" y2="3686.6"/>
<line class="st13" x1="1747.7" y1="4182.7" x2="1869.2" y2="3788.6"/>
<line class="st13" x1="1747.7" y1="4276.3" x2="1868.1" y2="3888.5"/>
<line class="st13" x1="1747.7" y1="4370.8" x2="1866.8" y2="4005.5"/>
<line class="st13" x1="1747.7" y1="4467.3" x2="1838.4" y2="4188.2"/>
<line class="st13" x1="1747.7" y1="4569.3" x2="1816" y2="4367.2"/>
<line class="st13" x1="1747.7" y1="4649.1" x2="1816" y2="4468.2"/>
<line class="st13" x1="1747.7" y1="4749.5" x2="1816" y2="4558.7"/>
<line class="st13" x1="1747.7" y1="4850.6" x2="1816" y2="4663"/>
<line class="st13" x1="1747.7" y1="4926.8" x2="1816" y2="4762.8"/>
<line class="st13" x1="1747.7" y1="5000" x2="1816" y2="4856.8"/>
<rect x="1934.5" y="3012" class="st1" width="1043.9" height="1320.4"/>
<g>
	<line class="st5" x1="1938.3" y1="3085.9" x2="2974.6" y2="3085.9"/>
	<line class="st5" x1="1938.3" y1="3149" x2="2974.6" y2="3149"/>
	<line class="st5" x1="1938.3" y1="3210.8" x2="2974.6" y2="3210.8"/>
	<line class="st5" x1="1938.3" y1="3275.2" x2="2974.6" y2="3275.2"/>
	<line class="st5" x1="1938.3" y1="3340.8" x2="2974.6" y2="3340.8"/>
	<line class="st5" x1="1938.3" y1="3397.7" x2="2974.6" y2="3397.7"/>
	<line class="st5" x1="1938.3" y1="3465" x2="2974.6" y2="3465"/>
	<line class="st5" x1="1938.3" y1="3530.8" x2="2974.6" y2="3530.8"/>
	<line class="st5" x1="1938.3" y1="3594.8" x2="2974.6" y2="3594.8"/>
	<line class="st5" x1="1938.3" y1="3667.7" x2="2974.6" y2="3667.7"/>
	<line class="st5" x1="1938.3" y1="3754.9" x2="2974.6" y2="3754.9"/>
	<line class="st5" x1="1938.3" y1="3829.6" x2="2974.6" y2="3829.6"/>
	<line class="st5" x1="1938.3" y1="3923.9" x2="2974.6" y2="3923.9"/>
	<line class="st5" x1="1938.3" y1="4007.3" x2="2974.6" y2="4007.3"/>
	<line class="st5" x1="1938.3" y1="4083.8" x2="2974.6" y2="4083.8"/>
	<line class="st5" x1="1938.3" y1="4169.8" x2="2974.6" y2="4169.8"/>
	<line class="st5" x1="1938.3" y1="4254.8" x2="2974.6" y2="4254.8"/>
	<line class="st5" x1="2041.1" y1="3019.3" x2="2041.1" y2="4332.4"/>
	<line class="st5" x1="2185.3" y1="3019.3" x2="2185.3" y2="4332.4"/>
	<line class="st5" x1="2359.1" y1="3022.1" x2="2359.1" y2="4332.4"/>
	<line class="st5" x1="2548.9" y1="3026.5" x2="2548.9" y2="4332.4"/>
	<line class="st5" x1="2739.8" y1="3019.3" x2="2739.8" y2="4332.4"/>
	<line class="st5" x1="2881.5" y1="3019.3" x2="2881.5" y2="4332.4"/>
</g>
<g>
	<g>
		<line class="st5" x1="1824.9" y1="4421.8" x2="3088" y2="4421.8"/>
		<line class="st5" x1="1824.9" y1="4512.6" x2="3088" y2="4512.6"/>
		<line class="st5" x1="1824.9" y1="4609.6" x2="3088" y2="4609.6"/>
		<line class="st5" x1="1824.9" y1="4712.1" x2="3088" y2="4712.1"/>
		<line class="st5" x1="1824.9" y1="4799.6" x2="3088" y2="4799.6"/>
		<line class="st5" x1="1824.9" y1="4904.3" x2="3088" y2="4904.3"/>
	</g>
	<line class="st5" x1="1970.4" y1="4332.4" x2="1970.4" y2="4993.6"/>
	<line class="st5" x1="2130.5" y1="4332.4" x2="2130.5" y2="4993.6"/>
	<line class="st5" x1="2290.6" y1="4337" x2="2290.6" y2="4993.6"/>
	<line class="st5" x1="2456.4" y1="4332.4" x2="2456.4" y2="4993.6"/>
	<line class="st5" x1="2632" y1="4337" x2="2632" y2="4993.6"/>
	<line class="st5" x1="2824.1" y1="4332.4" x2="2824.1" y2="4993.6"/>
	<line class="st5" x1="2955.7" y1="4337" x2="2955.7" y2="4993.6"/>
</g>
<path class="st1" d="M-0.7,569.9c19.5,0,643.2,0,643.2,0V0H3.4L-0.7,569.9z"/>
<line class="st5" x1="3.4" y1="122" x2="642.5" y2="122"/>
<line class="st5" x1="3.4" y1="284.9" x2="642.5" y2="284.9"/>
<line class="st5" x1="3.4" y1="462.5" x2="642.5" y2="462.5"/>
<line class="st14" x1="149.1" y1="0" x2="149.1" y2="569.9"/>
<line class="st14" x1="405.3" y1="0" x2="405.3" y2="571.7"/>
<g>
	<polygon class="st3" points="858.9,0 858.9,461.8 642.5,569.9 642.5,0 	"/>
	<line class="st13" x1="642.5" y1="122" x2="858.9" y2="65.4"/>
	<line class="st13" x1="642.5" y1="284.9" x2="858.9" y2="216.9"/>
	<line class="st13" x1="642.5" y1="462.5" x2="858.9" y2="369.8"/>
	<line class="st13" x1="732.5" y1="0" x2="732.5" y2="527.7"/>
	<line class="st13" x1="807.2" y1="0" x2="807.2" y2="475.5"/>
</g>
<polygon class="st3" points="2072.7,0 2072.7,810.2 1565,925.1 1565,0 "/>
<line class="st5" x1="1565" y1="93.8" x2="2072.7" y2="74.3"/>
<line class="st5" x1="1565" y1="234.8" x2="2072.7" y2="195.3"/>
<line class="st5" x1="1565" y1="373.6" x2="2072.7" y2="313.8"/>
<line class="st5" x1="1565" y1="523.9" x2="2072.7" y2="455.1"/>
<line class="st5" x1="1565" y1="637.3" x2="2072.7" y2="569.9"/>
<line class="st5" x1="1565" y1="758.2" x2="2072.7" y2="683.1"/>
<polygon class="st1" points="1003.2,0 1003.2,752.2 1565,925 1565,0 "/>
<line class="st5" x1="1003.2" y1="78.1" x2="1565" y2="93.8"/>
<line class="st5" x1="1003.2" y1="208" x2="1565" y2="234.8"/>
<line class="st5" x1="1003.2" y1="331.6" x2="1565" y2="373.6"/>
<line class="st5" x1="1003.2" y1="462.5" x2="1565" y2="523.9"/>
<line class="st5" x1="1003.2" y1="636" x2="1565" y2="758.2"/>
<line class="st5" x1="1003.2" y1="551.9" x2="1565" y2="637.3"/>
<line class="st5" x1="1113.1" y1="5.3" x2="1113.1" y2="786.7"/>
<line class="st5" x1="1300.1" y1="5.3" x2="1300.1" y2="844.4"/>
<line class="st5" x1="1763.3" y1="5.3" x2="1763.3" y2="879.9"/>
<line class="st5" x1="1942.4" y1="5.3" x2="1942.4" y2="839.8"/>
<polygon class="st3" points="2369.1,0 2369.1,657.5 2072.7,683.1 2072.7,0 "/>
<polygon class="st3" points="2499.3,0 2498.8,541.2 2369.1,657.5 2369.1,0 "/>
<line class="st5" x1="2072.7" y1="98.5" x2="2369.1" y2="84.1"/>
<line class="st5" x1="2072.7" y1="215" x2="2369.1" y2="190.2"/>
<line class="st5" x1="2072.7" y1="328.7" x2="2369.1" y2="299.7"/>
<line class="st5" x1="2072.7" y1="438.5" x2="2369.1" y2="394"/>
<line class="st5" x1="2072.7" y1="530.2" x2="2369.1" y2="484.4"/>
<line class="st5" x1="2072.7" y1="616.7" x2="2369.1" y2="577.4"/>
<line class="st5" x1="2369.1" y1="84.1" x2="2499.2" y2="62.8"/>
<line class="st5" x1="2369.1" y1="190.2" x2="2499.1" y2="162.2"/>
<line class="st5" x1="2369.1" y1="299.7" x2="2499" y2="265"/>
<line class="st5" x1="2369.1" y1="394" x2="2499" y2="352.6"/>
<line class="st5" x1="2369.1" y1="484.4" x2="2498.9" y2="433.4"/>
<line class="st5" x1="2369.1" y1="577.4" x2="2498.8" y2="493.3"/>
<line class="st5" x1="2162.6" y1="5.3" x2="2162.6" y2="671.9"/>
<line class="st5" x1="2434" y1="5.3" x2="2434" y2="594.9"/>
<polygon class="st7" points="2668.6,0 2668.6,569.9 3188.6,752.3 3188.6,0 "/>
<line class="st15" x1="2668.6" y1="50.1" x2="3188.6" y2="56.5"/>
<line class="st15" x1="2668.6" y1="121.4" x2="3188.6" y2="140.5"/>
<line class="st15" x1="2668.6" y1="202.6" x2="3188.6" y2="238.6"/>
<line class="st15" x1="2668.6" y1="276.8" x2="3188.6" y2="328.7"/>
<line class="st15" x1="2668.6" y1="358.3" x2="3188.6" y2="422.1"/>
<line class="st15" x1="2668.6" y1="429.6" x2="3188.6" y2="526.4"/>
<line class="st15" x1="2668.6" y1="499.7" x2="3188.6" y2="643.6"/>
<line class="st15" x1="2749.8" y1="0" x2="2749.8" y2="597"/>
<line class="st15" x1="2959.5" y1="0" x2="2959.5" y2="671.9"/>
<polygon class="st11" points="3430.8,0 3430.8,986.6 4131.8,810.2 4131.8,0 "/>
<line class="st16" x1="3309.7" y1="0" x2="3309.7" y2="902"/>
<polygon class="st10" points="3188.6,0 3188.6,817.3 3430.8,986.6 3430.8,0 "/>
<line class="st12" x1="3188.6" y1="683.1" x2="3430.8" y2="835.9"/>
<line class="st12" x1="3188.6" y1="585" x2="3430.8" y2="717.5"/>
<line class="st12" x1="3188.6" y1="473" x2="3430.8" y2="587.5"/>
<line class="st12" x1="3188.6" y1="368.5" x2="3430.8" y2="469.1"/>
<line class="st12" x1="3188.6" y1="274.2" x2="3430.8" y2="362.1"/>
<line class="st12" x1="3188.6" y1="185.2" x2="3430.8" y2="265.3"/>
<line class="st12" x1="3188.6" y1="97.3" x2="3430.8" y2="160.9"/>
<line class="st12" x1="3188.6" y1="27.2" x2="3430.8" y2="82"/>
<line class="st12" x1="3430.8" y1="835.9" x2="4131.8" y2="689.4"/>
<line class="st12" x1="3430.8" y1="717.5" x2="4131.8" y2="577.4"/>
<line class="st12" x1="3430.8" y1="587.5" x2="4131.8" y2="467.9"/>
<line class="st12" x1="3430.8" y1="469.1" x2="4131.8" y2="362.1"/>
<line class="st12" x1="3430.8" y1="362.1" x2="4131.8" y2="266.6"/>
<line class="st12" x1="3430.8" y1="265.3" x2="4131.8" y2="180.1"/>
<line class="st12" x1="3430.8" y1="160.9" x2="4131.8" y2="96"/>
<line class="st12" x1="3430.8" y1="82" x2="4131.8" y2="22.1"/>
<line class="st12" x1="3684.4" y1="0" x2="3684.4" y2="919.7"/>
<line class="st12" x1="3919.7" y1="0" x2="3919.7" y2="860.6"/>
<path class="st3" d="M4322.5,0c0,19.2,0,662.6,0,662.6l-190.7,61.7V0H4322.5z"/>
<g>
	<line class="st5" x1="4136.6" y1="642.3" x2="4319.1" y2="581.5"/>
	<line class="st5" x1="4136.6" y1="567.1" x2="4319.1" y2="510.7"/>
	<line class="st5" x1="4136.6" y1="496.9" x2="4319.1" y2="446.4"/>
	<line class="st5" x1="4136.6" y1="426.1" x2="4319.1" y2="375.2"/>
	<line class="st5" x1="4136.6" y1="340.3" x2="4319.1" y2="297.3"/>
	<line class="st5" x1="4136.6" y1="240.4" x2="4319.1" y2="203.8"/>
	<line class="st5" x1="4136.6" y1="160.9" x2="4319.1" y2="128.1"/>
	<line class="st5" x1="4136.6" y1="83.8" x2="4319.1" y2="54.2"/>
	<line class="st5" x1="4215.3" y1="0" x2="4215.3" y2="691.5"/>
</g>
<rect x="4523.5" y="0" class="st10" width="475.8" height="616.7"/>
<g>
	<line class="st12" x1="4527.8" y1="547.8" x2="4995.5" y2="555.3"/>
	<line class="st12" x1="4527.8" y1="492.5" x2="4995.5" y2="500"/>
	<line class="st12" x1="4527.8" y1="435.9" x2="4995.5" y2="447.2"/>
	<line class="st12" x1="4527.8" y1="375" x2="4995.5" y2="381.1"/>
	<line class="st12" x1="4527.8" y1="322.8" x2="4995.5" y2="329.5"/>
	<line class="st12" x1="4527.8" y1="270.3" x2="4995.5" y2="277.7"/>
	<line class="st12" x1="4527.8" y1="218.6" x2="4995.5" y2="225.4"/>
	<line class="st12" x1="4527.8" y1="165.7" x2="4995.5" y2="169.4"/>
	<line class="st12" x1="4527.8" y1="120.1" x2="4995.5" y2="121.3"/>
	<line class="st12" x1="4527.8" y1="67.2" x2="4995.5" y2="67.2"/>
	<line class="st12" x1="4618.8" y1="5.6" x2="4618.8" y2="614.4"/>
	<line class="st12" x1="4818.8" y1="5.6" x2="4818.8" y2="614.2"/>
</g>
<polygon class="st10" points="2478.4,265 2467.9,422.8 2467.9,817.3 2478.4,817.3 "/>
<g>
	<path class="st17" d="M3148.5,2557.9v1566.9c161.5-28,323-56,484.5-84c0-263.5,0-527,0-790.5c49.5-32.1,98.9-64.1,148.4-96.1
		c0-248.3,0-496.5,0-744.8L3148.5,2557.9z"/>
	<path class="st18" d="M3275.2,2219.7l-126.7,338.3l632.9-148.4v-105.5c66.4-87.4,132.7-174.8,199.1-262.2
		C3745.3,2101.1,3510.3,2160.3,3275.2,2219.7z"/>
	<g>
		<line class="st19" x1="3152.4" y1="2639.2" x2="3781.3" y2="2496.8"/>
		<line class="st19" x1="3152.4" y1="2721.2" x2="3781.3" y2="2586.6"/>
		<line class="st19" x1="3152.4" y1="2809" x2="3781.3" y2="2671.5"/>
		<line class="st19" x1="3152.4" y1="2896.8" x2="3781.3" y2="2762.2"/>
		<line class="st19" x1="3152.4" y1="2985.7" x2="3781.3" y2="2852.9"/>
		<line class="st19" x1="3152.4" y1="3079" x2="3781.3" y2="2950.7"/>
		<line class="st19" x1="3152.4" y1="3183.5" x2="3781.3" y2="3054.8"/>
		<line class="st19" x1="3152.4" y1="3280.2" x2="3781.3" y2="3154.2"/>
		<line class="st19" x1="3152.4" y1="3370.8" x2="3633.8" y2="3280.2"/>
		<line class="st19" x1="3152.4" y1="3460.2" x2="3633.8" y2="3370.8"/>
		<line class="st19" x1="3152.4" y1="3546.6" x2="3633.8" y2="3460.2"/>
		<line class="st19" x1="3152.4" y1="3637.1" x2="3633.8" y2="3546.6"/>
		<line class="st19" x1="3152.4" y1="3732" x2="3633.8" y2="3645.9"/>
		<line class="st19" x1="3152.4" y1="3825.3" x2="3633.8" y2="3732"/>
		<line class="st19" x1="3152.4" y1="3921.6" x2="3633.8" y2="3825.3"/>
		<line class="st19" x1="3152.4" y1="4005.5" x2="3633.8" y2="3910.2"/>
	</g>
	<path class="st11" d="M3781.3,2304.1v850.2l573.9-371.6v-450.8c0,0,216.1-213.6,209.8-207.4
		C4558.8,2130.5,3781.3,2304.1,3781.3,2304.1z"/>
	<polygon class="st10" points="4030.3,1976.1 3781.3,2304.1 4565,2124.3 4921.5,1772 	"/>
	<line class="st12" x1="3781.3" y1="2386.6" x2="4445.8" y2="2242.2"/>
	<line class="st12" x1="3781.3" y1="2461.9" x2="4355.2" y2="2350.8"/>
	<line class="st12" x1="3781.3" y1="2557.9" x2="4355.2" y2="2447"/>
	<line class="st12" x1="3781.3" y1="2642.7" x2="4362.8" y2="2531"/>
	<line class="st12" x1="3781.3" y1="2726.3" x2="4355.2" y2="2613.1"/>
	<line class="st12" x1="3781.3" y1="2821" x2="4355.2" y2="2707.7"/>
	<line class="st12" x1="3781.3" y1="2919.3" x2="4355.2" y2="2782.6"/>
	<line class="st12" x1="3781.3" y1="3001" x2="4160.8" y2="2908.5"/>
	<line class="st16" x1="3781.3" y1="3086.4" x2="3971" y2="3031.3"/>
	<polygon class="st11" points="3632.9,3250.4 3632.9,4993.6 4355.2,4993.6 4355.2,2782.6 	"/>
	<polygon class="st10" points="4355.2,3256 3632.9,3250.4 4355.2,2782.6 	"/>
	<g>
		<line class="st12" x1="3632.9" y1="3411.4" x2="4355.2" y2="3419.6"/>
		<line class="st12" x1="3632.9" y1="3546.6" x2="4355.2" y2="3546.6"/>
		<line class="st12" x1="3632.9" y1="3703.9" x2="4355.2" y2="3703.9"/>
		<line class="st12" x1="3632.9" y1="3825.3" x2="4355.2" y2="3825.3"/>
		<line class="st12" x1="3632.9" y1="3966" x2="4355.2" y2="3966"/>
		<line class="st12" x1="3632.9" y1="4106.8" x2="4355.2" y2="4106.8"/>
		<line class="st12" x1="3632.9" y1="4219.9" x2="4355.2" y2="4219.9"/>
		<line class="st12" x1="3632.9" y1="4384.2" x2="4355.2" y2="4384.2"/>
		<line class="st12" x1="3632.9" y1="4515.4" x2="4355.2" y2="4509.8"/>
		<line class="st12" x1="3632.9" y1="4663" x2="4355.2" y2="4663"/>
		<line class="st12" x1="3632.9" y1="4818.9" x2="4355.2" y2="4818.9"/>
		<line class="st12" x1="3632.9" y1="4940.3" x2="4355.2" y2="4940.3"/>
	</g>
	<polygon class="st3" points="4999.3,2553.5 4355.2,2331.7 4999.3,1695 	"/>
	<polygon class="st1" points="4355.2,4993.6 4355.2,2331.7 4999.3,2553.5 4999.3,4993.6 	"/>
	<line class="st5" x1="4355.2" y1="2528.2" x2="4999.3" y2="2757.3"/>
	<line class="st5" x1="4355.2" y1="2718.6" x2="4999.3" y2="2942.1"/>
	<line class="st5" x1="4355.2" y1="2874.7" x2="4999.3" y2="3096.8"/>
	<line class="st5" x1="4355.2" y1="3019.3" x2="4999.3" y2="3256"/>
	<line class="st5" x1="4355.2" y1="3163" x2="4999.3" y2="3397.6"/>
	<line class="st5" x1="4355.2" y1="3317.5" x2="4999.3" y2="3563.2"/>
	<line class="st5" x1="4355.2" y1="3485.9" x2="4999.3" y2="3731.4"/>
	<line class="st5" x1="4355.2" y1="3646" x2="4999.3" y2="3908.1"/>
	<line class="st5" x1="4355.2" y1="3777" x2="4999.3" y2="4043.4"/>
	<line class="st5" x1="4355.2" y1="3938.5" x2="4999.3" y2="4197.9"/>
	<line class="st5" x1="4355.2" y1="4106.8" x2="4999.3" y2="4360.7"/>
	<line class="st5" x1="4355.2" y1="4255.9" x2="4999.3" y2="4512.5"/>
	<line class="st5" x1="4355.2" y1="4437.9" x2="4999.3" y2="4694.6"/>
	<line class="st5" x1="4355.2" y1="4603.5" x2="4999.3" y2="4863"/>
	<line class="st5" x1="4355.2" y1="4802.3" x2="4865.8" y2="4993.6"/>
</g>
<path class="st20" d="M2498.8,2459"/>
<g>
	<path class="st11" d="M2467.9,2182.7L2467.9,2182.7l-244.6,373.5c81.5-31.5,163-62.9,244.6-94.4V2182.7z"/>
	<path class="st10" d="M2712.4,2556.2l-244.5-373.5c0,93,0,186.1,0,279.1C2549.4,2493.3,2630.9,2524.8,2712.4,2556.2z"/>
	<path class="st21" d="M2467.9,2924.4L2467.9,2924.4l244.6-354.3c-81.5,32.6-163.1,65.1-244.6,97.7V2924.4z"/>
	<path class="st11" d="M2466.7,2668.2c-81.1-32.8-162.3-65.4-243.4-98.2l244.5,354.4v-256.7
		C2467.5,2667.9,2467.1,2668,2466.7,2668.2z"/>
	<path class="st10" d="M2223.3,2556.2c30.1,11.7,60.1,23.5,90.1,35.4c51.6,20.5,103.1,41.2,154.5,62.3v-192.1
		C2386.3,2493.3,2304.8,2524.8,2223.3,2556.2z"/>
	<path class="st21" d="M2712.4,2556.2L2712.4,2556.2c-40-16.4-80.2-32.4-120.5-47.9c-51.1-19.7-95.1-35.9-105.8-39.8
		c-7.7-2.8-14-5.1-18.2-6.7c0,64,0,128,0,192.1c40.8-16.3,81.5-32.6,122.3-48.8C2630.9,2588.8,2671.7,2572.5,2712.4,2556.2z"/>
</g>
</svg>
